<?xml version="1.0" encoding="utf-8"?>
<!-- Generator: Adobe Illustrator 28.0.0, SVG Export Plug-In . SVG Version: 6.00 Build 0)  -->
<svg version="1.0" id="图层_1" xmlns="http://www.w3.org/2000/svg" xmlns:xlink="http://www.w3.org/1999/xlink" x="0px" y="0px"
	 viewBox="0 0 256 256" style="enable-background:new 0 0 256 256;" xml:space="preserve">
<style type="text/css">
	.st0{display:none;}
	.st1{display:inline;}
  .st2{fill:#FFFFFF;}
	.st3{fill:#00A76F;}
	.st4{fill:#FEFEFE;}
	.st5{fill:#FDFEFE;}
	.st6{fill:#FDFEFD;}
	.st7{fill:#F8FCFB;}
	.st8{fill:#EEF8F5;}
	.st9{fill:#F1FAF7;}
	.st10{fill:#00A76F;}
	.st11{fill:#00A76F;}
	.st12{fill:#00A76F;}
	.st13{fill:#00A76F;}
</style>
<g class="st0">
	<g class="st1">
		<path d="M0,200.71c0-49.14,0-98.28,0-147.42c0.42-1.23,1.04-2.43,1.23-3.69C4.8,25.48,18.44,9.93,41.55,2.38
			c1.53-0.5,2.97-1.25,4.45-1.88c54.67,0,109.33,0,164,0c1.33,0.57,2.61,1.27,3.99,1.7c21.64,6.7,34.99,21.09,40.24,42.99
			c0.64,2.69,1.18,5.4,1.77,8.1c0,49.14,0,98.28,0,147.42c-0.42,1.23-1.06,2.44-1.22,3.7c-3.44,26.18-22.53,45.3-48.72,48.88
			c-1.43,0.19-2.71,1.44-4.05,2.2c-49.33,0-98.67,0-148,0c-1.35-0.76-2.63-2-4.05-2.2c-23.99-3.29-42.13-19.58-47.75-43.05
			C1.44,207.08,0.73,203.89,0,200.71z M56.05,177.23c2.06,0,4.02,0,5.97,0c40.31,0,80.63,0,120.94,0c5,0,10,0.14,14.99-0.1
			c1.35-0.06,3.44-0.93,3.85-1.95c2.68-6.68-0.19-11.35-7.1-10.53c-8.71,1.03-13.23-2.29-17.41-9.89
			c-3.86-7.01-3.76-11.79,0.01-18.77c4.17-7.71,8.88-10.78,17.5-9.77c6.62,0.78,11.54-4.56,11.65-11.25
			c0.06-3.65-0.08-7.3,0.03-10.95c0.09-2.75-0.62-4.8-3.82-4.21c-2.8,0.52-7.42-2.36-7.77,3.27c-0.22,3.53-2.02,4.07-4.86,3.95
			c-2.16-0.09-4.33-0.01-6.5-0.01c-7.81,0-7.81,0-9.95-6.83c-29.87,0-59.75,0-90.16,0c1.53,6.77-2.29,7.28-7.11,6.87
			c-2.65-0.23-5.33-0.13-7.99-0.02c-3.01,0.12-5.31-0.3-5.12-4.18c0.04-0.92-0.89-2.66-1.47-2.71c-3.29-0.26-6.73-0.58-9.85,0.2
			c-0.89,0.22-1.06,4.03-1.24,6.22c-0.2,2.47,0.15,4.99-0.09,7.46c-0.48,4.89,2.21,7.5,6.03,9.83c3.22,1.97,5.94,4.72,9.07,6.84
			c1.77,1.19,3.91,2.52,5.91,2.57c10.82,0.25,21.65,0.03,32.48,0.17c3.5,0.05,6.17-0.75,8.87-3.28c7.68-7.23,19.8-6.82,27.65,0.47
			c7.29,6.78,8.56,19.19,2.73,26.69c-6.8,8.75-19.79,11.79-27.94,4.98c-5.56-4.64-11.07-4.99-17.37-4.85
			c-6.16,0.14-12.33,0.13-18.49,0c-6.63-0.14-13.42-0.96-17.47,6.13c-0.23,0.4-0.74,0.72-1.19,0.89
			C54.68,166.78,55.04,171.55,56.05,177.23z M174.65,95.3c-1.91-7.22,2.48-7.02,7.05-6.79c2.82,0.14,5.67,0.16,8.49-0.01
			c3-0.18,4.37,0.64,4.76,4.01c0.62,5.36,5.18,2.38,7.99,2.94c2.98,0.6,3.59-1.37,3.54-3.91c-0.1-5.47,0.09-10.95-0.1-16.42
			c-0.22-6.1-4.41-10.94-10.46-12.26c-2.09-0.46-4.28-0.71-6.42-0.71c-40.62-0.04-81.25-0.03-121.87-0.03c-1,0-2-0.01-2.99,0.09
			c-8.97,0.9-13.99,6.44-14.03,15.47c-0.02,4.15,0.3,8.32-0.08,12.43c-0.42,4.5,1.3,6.07,5.62,5.45c1.31-0.19,2.82,0.33,3.95-0.15
			c1.24-0.53,3.04-1.84,3.03-2.81c-0.03-3.91,2.17-4.26,5.18-4.09c2.32,0.13,4.66,0.1,6.99,0.01c4.78-0.18,9.94-0.98,8.45,6.78
			C114.13,95.3,143.87,95.3,174.65,95.3z M141.55,139.36c-5.78-12.01-19.5-14.17-27.38-5.18c-2.26,2.58-4.5,3.39-7.71,3.35
			c-12.33-0.13-24.66,0.09-36.98-0.19c-2.05-0.05-4.15-1.81-6.05-3.05c-4.08-2.65-7.68-6.58-12.13-8.01
			c-9.31-3-20.16,3.34-21.5,12.04c4.87,0,9.66-0.03,14.46,0.01c2.97,0.03,7.69,4.47,7.66,7.1c-0.03,2.65-4.75,7.06-7.69,7.09
			c-4.79,0.05-9.58,0.01-15.43,0.01c1.32,2.38,1.95,4.05,3.01,5.37c8.21,10.23,23.34,9.77,31.26-1.16c1.93-2.66,3.85-3.52,6.96-3.48
			c12.16,0.15,24.32,0.13,36.48,0.01c3.18-0.03,5.42,0.69,7.69,3.31c7.97,9.18,22.9,6.6,26.99-5.1c-4.15,0-8.07-0.16-11.97,0.04
			c-4.58,0.23-6.1-3.23-6.08-6.28c0.02-2.78,1.52-6.17,5.9-5.92C132.93,139.53,136.86,139.36,141.55,139.36z M139.9,218.69
			c-0.25-0.06-0.5-0.12-0.75-0.18c0.9-5.14,1.8-10.27,2.68-15.41c0.91-5.3,1.78-10.61,2.66-15.86c-9.62-2.22-10.4-1.74-12.27,6.85
			c-0.37,1.69-0.94,3.33-1.42,5c-0.32-0.1-0.63-0.2-0.95-0.3c0.5-3.94,1-7.89,1.57-12.41c-2.78,0-4.76,0.16-6.71-0.04
			c-3.18-0.32-4.51,1.25-4.99,4.13c-1.68,10.09-3.44,20.17-5.14,30.26c-0.36,2.14-1.72,5.15,2.27,4.95
			c3.14-0.16,7.74,2.33,8.59-3.71c0.55-3.91,1.53-7.77,2.32-11.65c0.43,0.08,0.86,0.17,1.28,0.25c-0.56,3.84-0.89,7.72-1.75,11.49
			c-0.65,2.84,0.48,3.69,2.94,3.73c3.66,0.05,7.32-0.11,10.97,0.08c4.67,0.25,9.09,0.36,10.06-5.76c0.06-0.36,0.93-0.6,1.9-1.18
			c0.24,2.44,0.43,4.33,0.65,6.47c1.42,0.16,2.71,0.4,4,0.43c6.33,0.17,6.44-0.04,6.61-6.12c0.22-7.94,0.82-15.87,0.86-23.8
			c0.07-11.2,1.29-9.14-9.45-9.6c-4.36-0.19-6.53,1.07-7.71,5.49C145.73,200.84,142.69,209.73,139.9,218.69z M59.94,212.12
			c0.22-0.02,0.43-0.05,0.65-0.07c0,3.31-0.07,6.62,0.04,9.92c0.04,1.07,0.24,2.5,0.94,3.13c3.04,2.76,12.12,0.23,13.28-3.66
			c3.08-10.3,6.1-20.62,9.08-30.95c0.33-1.16,0.21-2.45,0.3-3.65c-9.96-1.25-9.95-1.25-12.57,7.49c-0.6,2-1.24,3.99-1.86,5.99
			c-0.39-2.8,0.17-5.44,0.07-8.05c-0.08-1.96-0.5-5.11-1.67-5.6c-4.42-1.84-8.85-0.16-9.94,3.09c-1.2,3.56-2.24,7.18-3.35,10.77
			c-0.18-0.04-0.36-0.08-0.53-0.12c0.35-4.46,0.7-8.93,1.11-14.02c-3.02,0-5.41-0.39-7.56,0.15c-1.28,0.32-3.03,2.01-3.15,3.22
			c-0.89,9.54-1.53,19.11-2.06,28.68c-0.41,7.42-0.28,7.18,7.23,7.49c4.51,0.18,6.75-1.39,7.53-5.79
			C57.95,217.41,59.09,214.79,59.94,212.12z M96.6,201.85c2.9,0,5.38,0.22,7.8-0.1c1.04-0.14,2.43-1.17,2.83-2.14
			c3.01-7.24-0.91-13.43-8.78-14.14c-7.12-0.64-13.17,3.53-14.67,10.64c-1.4,6.62-2.38,13.32-3.39,20.02
			c-0.95,6.33,2.62,10.13,9.06,9.9c3.17-0.11,6.42,0.21,9.49-0.37c1.63-0.31,3.69-1.87,4.28-3.36c1.13-2.87,1.37-6.1,1.95-9.19
			c1.81-9.71,0.81-10.75-9.22-9.53c-0.84,0.1-1.66,0.45-2.83,0.78c0.87-3.59,1.66-6.85,2.45-10.12c0.34,0.08,0.69,0.17,1.03,0.25
			C96.6,196.63,96.6,198.75,96.6,201.85z M193.38,198.6c0.15-9.6-2.52-12.72-9.17-13.15c-6.75-0.44-12.78,3.45-14.23,9.94
			c-1.57,7.07-2.59,14.27-3.59,21.44c-0.53,3.8,1,7.09,4.74,8.37c6.4,2.19,16,1.36,18.62-8.06
			C191.65,210.35,192.5,203.27,193.38,198.6z M202.88,210.22c-2.4,0.14-3.28,0-4.02,0.27c-2.09,0.75-5.39,1.18-5.93,2.6
			c-1.39,3.61-2.13,7.81,1.65,10.94c6.56,5.43,18.51,1.46,20.74-6.68c1.88-6.86,0.64-12.22-5.65-16.34
			c-1.76-1.15-2.54-3.78-3.77-5.73c0.48-0.27,0.96-0.55,1.44-0.82c0.23,1.39,0.45,2.78,0.72,4.42c1.59,0.09,3.15,0.51,4.51,0.16
			c1.96-0.51,5.05-1.23,5.41-2.49c0.9-3.2,1.41-6.96-2.4-9.29c-6.1-3.73-18.2-1.92-20.16,8.15
			C194.11,202.08,196.44,206.19,202.88,210.22z M128.86,32.98c-8.15,0-16.3,0.03-24.44-0.02c-2.25-0.01-3.9,0.33-3.86,3.17
			c0.09,6.46-0.08,12.92,0.14,19.37c0.03,1.02,1.54,1.99,2.36,2.98c0.96-0.89,2.4-1.63,2.77-2.72c0.51-1.5,0.25-3.27,0.25-4.92
			c0.02-9.37-0.39-8.12,8.45-8.17c8.15-0.05,16.3-0.08,24.44,0.02c3.95,0.04,8.99-0.98,11.49,1.02c2,1.6,0.71,7.07,1.29,10.75
			c0.23,1.43,1.58,2.69,2.42,4.03c1.05-1.32,2.91-2.59,2.99-3.97c0.35-5.61-0.02-11.26,0.21-16.88c0.16-3.83-1.51-4.8-5.06-4.72
			C144.49,33.11,136.67,32.97,128.86,32.98z M194.07,161.52c3.27-0.75,7.79-0.44,9.59-2.49c3.39-3.86,7.15-9.1,7.12-13.75
			c-0.02-4.66-3.96-9.72-7.24-13.74c-1.37-1.69-5.49-1.59-8.35-1.53c-3.51,0.08-8.3-0.23-10.21,1.8c-3.51,3.72-7.3,9.04-7.27,13.68
			c0.02,4.65,4,9.74,7.35,13.72C186.63,161.07,190.79,160.77,194.07,161.52z M73.4,103.28c4.66,1.21,6.06-0.75,6.19-5.63
			c0.14-5.23-2.43-5.56-6.38-5.53c-3.9,0.03-6.65,0.31-6.59,5.52C66.68,102.62,68.5,104.31,73.4,103.28z M184.82,103.34
			c4.19,0.65,6.61-0.07,6.65-5.22c0.05-5.17-2.21-6.11-6.6-6.02c-3.94,0.08-6.53,0.33-6.44,5.56
			C178.52,102.68,180.26,104.3,184.82,103.34z"/>
		<path class="st2" d="M0,200.71c0.73,3.18,1.44,6.36,2.2,9.54c5.61,23.47,23.75,39.75,47.75,43.05c1.43,0.2,2.71,1.44,4.05,2.2
			c-18,0-36,0-54,0C0,237.24,0,218.98,0,200.71z"/>
		<path class="st2" d="M202,255.5c1.35-0.76,2.63-2,4.05-2.2c26.19-3.58,45.28-22.7,48.72-48.88c0.17-1.27,0.81-2.47,1.22-3.7
			c0,18.26,0,36.52,0,54.79C238,255.5,220,255.5,202,255.5z"/>
		<path class="st2" d="M46,0.5c-1.48,0.63-2.92,1.38-4.45,1.88C18.44,9.93,4.8,25.48,1.23,49.6C1.04,50.86,0.42,52.06,0,53.29
			C0,35.7,0,18.1,0,0.5C15.33,0.5,30.67,0.5,46,0.5z"/>
		<path class="st2" d="M256,53.29c-0.59-2.7-1.13-5.41-1.77-8.1c-5.25-21.91-18.6-36.3-40.24-42.99c-1.37-0.43-2.66-1.13-3.99-1.7
			c15.33,0,30.67,0,46,0C256,18.1,256,35.7,256,53.29z"/>
		<path class="st2" d="M56.05,177.23c-1-5.68-1.37-10.44,4.77-12.77c0.45-0.17,0.96-0.49,1.19-0.89c4.06-7.09,10.84-6.27,17.47-6.13
			c6.16,0.13,12.33,0.13,18.49,0c6.31-0.14,11.81,0.21,17.37,4.85c8.15,6.81,21.14,3.77,27.94-4.98c5.83-7.5,4.56-19.92-2.73-26.69
			c-7.85-7.3-19.98-7.7-27.65-0.47c-2.7,2.54-5.37,3.33-8.87,3.28c-10.83-0.15-21.66,0.08-32.48-0.17c-2-0.05-4.15-1.37-5.91-2.57
			c-3.13-2.12-5.85-4.87-9.07-6.84c-3.82-2.33-6.52-4.94-6.03-9.83c0.24-2.47-0.11-4.99,0.09-7.46c0.18-2.19,0.34-6,1.24-6.22
			c3.12-0.78,6.56-0.46,9.85-0.2c0.59,0.05,1.52,1.79,1.47,2.71c-0.19,3.88,2.11,4.3,5.12,4.18c2.66-0.11,5.35-0.2,7.99,0.02
			c4.82,0.41,8.63-0.1,7.11-6.87c30.42,0,60.29,0,90.16,0c2.14,6.83,2.14,6.83,9.95,6.83c2.17,0,4.33-0.08,6.5,0.01
			c2.85,0.12,4.64-0.42,4.86-3.95c0.35-5.62,4.97-2.75,7.77-3.27c3.2-0.59,3.91,1.45,3.82,4.21c-0.11,3.65,0.02,7.3-0.03,10.95
			c-0.1,6.69-5.03,12.03-11.65,11.25c-8.62-1.01-13.33,2.06-17.5,9.77c-3.77,6.98-3.87,11.76-0.01,18.77
			c4.19,7.6,8.71,10.92,17.41,9.89c6.91-0.82,9.79,3.86,7.1,10.53c-0.41,1.03-2.5,1.89-3.85,1.95c-4.99,0.23-9.99,0.1-14.99,0.1
			c-40.31,0-80.63,0-120.94,0C60.06,177.23,58.11,177.23,56.05,177.23z"/>
		<path class="st2" d="M174.65,95.3c-30.78,0-60.53,0-90.93,0c1.49-7.76-3.67-6.96-8.45-6.78c-2.33,0.09-4.67,0.12-6.99-0.01
			c-3.01-0.17-5.21,0.19-5.18,4.09c0.01,0.96-1.79,2.28-3.03,2.81c-1.13,0.48-2.64-0.04-3.95,0.15c-4.32,0.63-6.04-0.95-5.62-5.45
			c0.38-4.11,0.07-8.28,0.08-12.43c0.03-9.03,5.06-14.58,14.03-15.47c0.99-0.1,2-0.09,2.99-0.09c40.62,0,81.25-0.01,121.87,0.03
			c2.14,0,4.33,0.25,6.42,0.71c6.05,1.33,10.24,6.16,10.46,12.26c0.2,5.47,0,10.95,0.1,16.42c0.05,2.54-0.56,4.51-3.54,3.91
			c-2.81-0.56-7.37,2.42-7.99-2.94c-0.39-3.37-1.75-4.19-4.76-4.01c-2.82,0.17-5.66,0.15-8.49,0.01
			C177.13,88.28,172.74,88.09,174.65,95.3z"/>
		<path class="st2" d="M141.55,139.36c-4.69,0-8.62,0.17-12.52-0.05c-4.38-0.25-5.88,3.14-5.9,5.92c-0.02,3.04,1.5,6.51,6.08,6.28
			c3.9-0.2,7.82-0.04,11.97-0.04c-4.09,11.7-19.02,14.28-26.99,5.1c-2.27-2.62-4.51-3.34-7.69-3.31
			c-12.16,0.11-24.32,0.13-36.48-0.01c-3.12-0.04-5.03,0.82-6.96,3.48c-7.91,10.94-23.05,11.4-31.26,1.16
			c-1.06-1.32-1.69-2.98-3.01-5.37c5.85,0,10.64,0.03,15.43-0.01c2.94-0.03,7.66-4.44,7.69-7.09c0.03-2.64-4.69-7.07-7.66-7.1
			c-4.79-0.05-9.59-0.01-14.46-0.01c1.33-8.7,12.19-15.04,21.5-12.04c4.44,1.43,8.05,5.36,12.13,8.01c1.9,1.24,4.01,3.01,6.05,3.05
			c12.32,0.29,24.65,0.07,36.98,0.19c3.22,0.03,5.46-0.78,7.71-3.35C122.05,125.19,135.77,127.35,141.55,139.36z"/>
		<path class="st2" d="M139.9,218.69c2.78-8.96,5.82-17.85,8.23-26.9c1.17-4.42,3.35-5.68,7.71-5.49c10.74,0.46,9.52-1.6,9.45,9.6
			c-0.05,7.94-0.64,15.87-0.86,23.8c-0.17,6.08-0.28,6.29-6.61,6.12c-1.29-0.03-2.58-0.27-4-0.43c-0.21-2.14-0.4-4.03-0.65-6.47
			c-0.96,0.58-1.84,0.81-1.9,1.18c-0.97,6.12-5.38,6.01-10.06,5.76c-3.65-0.19-7.31-0.02-10.97-0.08c-2.46-0.04-3.59-0.89-2.94-3.73
			c0.86-3.77,1.19-7.65,1.75-11.49c-0.43-0.08-0.86-0.17-1.28-0.25c-0.79,3.88-1.77,7.73-2.32,11.65c-0.85,6.05-5.45,3.55-8.59,3.71
			c-4,0.21-2.63-2.81-2.27-4.95c1.7-10.09,3.46-20.17,5.14-30.26c0.48-2.88,1.8-4.45,4.99-4.13c1.94,0.2,3.92,0.04,6.71,0.04
			c-0.57,4.52-1.07,8.47-1.57,12.41c0.32,0.1,0.63,0.2,0.95,0.3c0.48-1.67,1.05-3.31,1.42-5c1.87-8.59,2.65-9.08,12.27-6.85
			c-0.88,5.25-1.76,10.56-2.66,15.86c-0.88,5.14-1.79,10.27-2.68,15.41C139.4,218.57,139.65,218.63,139.9,218.69z"/>
		<path class="st2" d="M59.94,212.12c-0.85,2.67-1.99,5.29-2.48,8.02c-0.78,4.4-3.02,5.97-7.53,5.79c-7.51-0.31-7.64-0.06-7.23-7.49
			c0.53-9.57,1.17-19.14,2.06-28.68c0.11-1.21,1.87-2.9,3.15-3.22c2.15-0.53,4.53-0.15,7.56-0.15c-0.4,5.09-0.75,9.56-1.11,14.02
			c0.18,0.04,0.36,0.08,0.53,0.12c1.11-3.59,2.15-7.21,3.35-10.77c1.1-3.25,5.53-4.93,9.94-3.09c1.17,0.49,1.59,3.64,1.67,5.6
			c0.11,2.61-0.46,5.24-0.07,8.05c0.62-2,1.26-3.99,1.86-5.99c2.62-8.75,2.61-8.75,12.57-7.49c-0.09,1.2,0.04,2.49-0.3,3.65
			c-2.97,10.33-6,20.65-9.08,30.95c-1.16,3.89-10.24,6.42-13.28,3.66c-0.7-0.64-0.9-2.06-0.94-3.13c-0.12-3.3-0.04-6.61-0.04-9.92
			C60.37,212.07,60.16,212.1,59.94,212.12z"/>
		<path class="st2" d="M96.6,201.85c0-3.1,0-5.22,0-7.35c-0.34-0.08-0.69-0.17-1.03-0.25c-0.79,3.27-1.58,6.53-2.45,10.12
			c1.18-0.33,1.99-0.68,2.83-0.78c10.03-1.23,11.04-0.18,9.22,9.53c-0.58,3.09-0.82,6.31-1.95,9.19c-0.59,1.49-2.65,3.05-4.28,3.36
			c-3.08,0.59-6.32,0.26-9.49,0.37c-6.44,0.22-10.01-3.57-9.06-9.9c1-6.69,1.99-13.4,3.39-20.02c1.5-7.12,7.54-11.29,14.67-10.64
			c7.87,0.71,11.78,6.9,8.78,14.14c-0.4,0.97-1.78,2-2.83,2.14C101.99,202.06,99.5,201.85,96.6,201.85z"/>
		<path class="st2" d="M193.38,198.6c-0.88,4.67-1.73,11.75-3.63,18.54c-2.63,9.42-12.23,10.24-18.62,8.06
			c-3.74-1.28-5.27-4.57-4.74-8.37c1.01-7.18,2.03-14.37,3.59-21.44c1.44-6.49,7.47-10.38,14.23-9.94
			C190.86,185.88,193.53,189,193.38,198.6z M182.85,194.51c-0.53-0.09-1.06-0.19-1.6-0.28c-1.36,7.63-2.72,15.25-4.08,22.88
			c0.53,0.09,1.07,0.19,1.6,0.28C180.14,209.76,181.49,202.13,182.85,194.51z"/>
		<path class="st2" d="M202.88,210.22c-6.44-4.03-8.77-8.14-7.47-14.82c1.96-10.07,14.05-11.88,20.16-8.15
			c3.81,2.33,3.3,6.09,2.4,9.29c-0.35,1.26-3.44,1.98-5.41,2.49c-1.36,0.35-2.92-0.08-4.51-0.16c-0.26-1.63-0.49-3.02-0.72-4.42
			c-0.48,0.27-0.96,0.55-1.44,0.82c1.23,1.95,2.01,4.58,3.77,5.73c6.29,4.11,7.53,9.48,5.65,16.34
			c-2.23,8.15-14.18,12.11-20.74,6.68c-3.77-3.13-3.03-7.33-1.65-10.94c0.55-1.42,3.84-1.85,5.93-2.6
			C199.6,210.22,200.48,210.36,202.88,210.22z"/>
		<path class="st2" d="M128.86,32.98c7.82,0,15.63,0.13,23.44-0.07c3.55-0.09,5.22,0.88,5.06,4.72c-0.23,5.62,0.14,11.27-0.21,16.88
			c-0.09,1.38-1.95,2.65-2.99,3.97c-0.84-1.34-2.2-2.59-2.42-4.03c-0.58-3.69,0.71-9.15-1.29-10.75c-2.5-2-7.54-0.98-11.49-1.02
			c-8.15-0.09-16.3-0.07-24.44-0.02c-8.83,0.05-8.42-1.19-8.45,8.17c0,1.65,0.26,3.43-0.25,4.92c-0.37,1.09-1.81,1.83-2.77,2.72
			c-0.82-0.99-2.32-1.96-2.36-2.98c-0.22-6.45-0.05-12.92-0.14-19.37c-0.04-2.83,1.61-3.18,3.86-3.17
			C112.56,33.01,120.71,32.98,128.86,32.98z"/>
		<path class="st2" d="M194.07,161.52c-3.28-0.75-7.44-0.45-9.01-2.32c-3.35-3.98-7.32-9.07-7.35-13.72
			c-0.02-4.64,3.77-9.96,7.27-13.68c1.91-2.03,6.7-1.71,10.21-1.8c2.85-0.07,6.97-0.16,8.35,1.53c3.28,4.03,7.21,9.08,7.24,13.74
			c0.02,4.65-3.74,9.89-7.12,13.75C201.86,161.08,197.34,160.77,194.07,161.52z M193.99,139.11c-3.58,0.4-5.88,2.34-5.96,6.32
			c-0.08,3.78,2.83,6.39,6.78,6.19c4.11-0.21,5.93-2.68,5.82-6.51C200.52,141.17,198.23,139.18,193.99,139.11z"/>
		<path class="st2" d="M73.4,103.28c-4.9,1.03-6.72-0.65-6.78-5.63c-0.06-5.21,2.69-5.49,6.59-5.52c3.95-0.03,6.52,0.3,6.38,5.53
			C79.46,102.53,78.06,104.49,73.4,103.28z"/>
		<path class="st2" d="M184.82,103.34c-4.56,0.97-6.3-0.66-6.39-5.68c-0.09-5.23,2.5-5.48,6.44-5.56c4.39-0.09,6.65,0.84,6.6,6.02
			C191.43,103.27,189.02,103.99,184.82,103.34z"/>
		<path d="M182.85,194.51c-1.36,7.63-2.72,15.25-4.07,22.88c-0.53-0.09-1.07-0.19-1.6-0.28c1.36-7.63,2.72-15.25,4.08-22.88
			C181.79,194.32,182.32,194.41,182.85,194.51z"/>
		<path d="M193.99,139.11c4.23,0.06,6.52,2.05,6.64,6c0.11,3.83-1.71,6.3-5.82,6.51c-3.95,0.2-6.85-2.42-6.78-6.19
			C188.11,141.46,190.41,139.51,193.99,139.11z"/>
	</g>
</g>
<g>
	<g>
		<path class="st3" d="M0.07,205.96c0-51.97,0-103.94,0-155.92c1.29-5.93,0.46-12.23,3.32-17.89c8.55-16.93,20.8-28.96,40.65-31.09
			c55.97,0,111.94,0,167.91,0c19.8,2.19,32.18,14.05,40.66,31.08c2.83,5.68,2.04,11.97,3.32,17.9c0,51.97,0,103.94,0,155.92
			c-1.2,7.25-1.01,14.73-5.03,21.43c-9.74,16.24-22.59,27.52-42.6,28.05c-0.52,0.01-0.96,0.18-1.35,0.5c-52.64,0-105.28,0-157.92,0
			c-7.26-1.2-14.72-1.34-21.31-5.5c-15.8-9.97-27.02-22.74-27.16-42.63C0.56,207.14,0.56,206.49,0.07,205.96z"/>
		<path class="st4" d="M128,177.97c-22.48,0-44.96,0.03-67.44-0.07c-1.5-0.01-4.36,1.32-4.34-1.5c0.01-2.79-2.05-6.37,2.03-8.39
			c1.76-0.87,3.88-1.87,4.81-3.42c3.5-5.87,8.87-5.77,14.64-5.62c9.15,0.24,18.32,0.13,27.47,0.02c2.64-0.03,4.53,0.62,6.52,2.59
			c8.73,8.63,21.34,8.16,30.24-0.84c7.7-7.79,7.88-20.65,0.38-28.36c-9.01-9.26-21.73-9.83-30.63-1.09c-2,1.96-3.89,2.63-6.53,2.6
			c-11.16-0.1-22.31-0.03-33.47-0.06c-1.3,0-3.04,0.6-3.81-0.54c-3.47-5.19-8.91-7.78-13.81-11.13c-2.28-1.56-3.39-3.9-3.04-6.9
			c0.27-2.3,0.01-4.66,0.06-6.99c0.19-7.99-1.59-6.84,7.12-7.12c3.06-0.1,4.89,0.51,4.32,4.04c-0.53,3.28,1.2,3.88,4.07,3.74
			c4.49-0.21,9-0.21,13.48,0c2.89,0.13,4.56-0.49,3.96-3.77c-0.64-3.52,1.19-4.03,4.23-4.02c27.14,0.09,54.29,0.12,81.43-0.03
			c3.54-0.02,4.88,0.99,4.32,4.44c-0.43,2.64,0.76,3.46,3.35,3.36c4.82-0.17,9.66-0.22,14.48,0.02c3.12,0.15,4.26-0.94,3.88-3.97
			c-0.69-5.43,3.44-3.36,5.97-3.76c3.19-0.5,4.55,0.68,4.24,4.07c-0.27,2.97-0.06,5.99-0.06,8.99c0,8.27-4.19,13.05-12.38,12.21
			c-8.13-0.83-12.15,2.3-16.23,9.2c-4.61,7.78-4.95,13.48-0.1,21.36c4.13,6.72,7.96,10.91,16.11,9.17c0.16-0.03,0.34-0.03,0.5,0
			c2.37,0.41,5.9-1.35,6.89,0.99c1.14,2.7,0.67,6.23,0.36,9.34c-0.25,2.53-2.66,1.38-4.06,1.38c-20.65,0.08-41.3,0.06-61.95,0.06
			C132.66,177.97,130.33,177.97,128,177.97z"/>
		<path class="st4" fill="currentColor" d="M129.02,63.87c20.48,0,40.96-0.03,61.44,0.01c10.72,0.02,15.36,4.75,15.4,15.59c0.02,4.5-0.16,9,0.06,13.48
			c0.18,3.63-2.3,3.32-4.27,2.88c-2.07-0.46-6.16,2.34-5.85-2.61c0.27-4.13-1.58-4.65-4.97-4.47c-4.48,0.23-8.99,0.18-13.48,0.01
			c-2.54-0.09-3.81,0.63-3.37,3.33c0.48,2.94-0.51,3.94-3.72,3.93c-27.47-0.14-54.95-0.13-82.42-0.01
			c-3.09,0.01-4.34-0.81-3.83-3.88c0.44-2.65-0.73-3.48-3.33-3.36c-3.99,0.18-7.99,0.16-11.99,0.01c-3.7-0.14-7.26-0.49-6.29,5.11
			c0.32,1.85-1.06,2.12-2.55,2.07c-1.66-0.05-3.35-0.19-4.99,0.02c-3.13,0.41-4.06-0.82-3.89-3.88c0.25-4.48,0.03-8.99,0.07-13.48
			c0.09-9.13,5.45-14.67,14.52-14.71C86.72,63.83,107.87,63.88,129.02,63.87z"/>
		<path class="st4" d="M140.43,139.88c-3.79,0-7.38-0.01-10.97,0c-3.61,0.02-7.66,3.66-7.49,6.71c0.17,3.14,3.84,6.39,7.27,6.41
			c3.33,0.02,6.66,0.01,9.98,0.04c0.31,0,0.61,0.17,0.91,0.27c-1.51,8.72-17.1,13.4-25.15,4.17c-2.51-2.87-4.95-3.67-8.46-3.62
			c-12.48,0.16-24.96,0.14-37.44,0c-2.93-0.03-4.58,0.72-6.31,3.37c-8,12.3-26.04,10.9-32.84-2.99c4.84,0,9.38,0.01,13.93,0
			c3.4-0.01,9.2-5.07,9.06-7.91c-0.15-3.14-5.64-7.7-9.3-7.71c-4.32-0.01-8.65,0-12.98,0c1.18-6.06,7.98-11.15,15.43-11.36
			c7.16-0.21,13.14,2.5,16.87,8.69c1.58,2.62,3.28,3.12,5.96,3.1c12.81-0.1,25.63-0.12,38.44,0.01c3.01,0.03,5.05-0.68,7.15-3.15
			C121.98,127.05,135.86,129.07,140.43,139.88z"/>
		<path class="st5" d="M60.23,210.65c-1,3.1-2.46,6.14-2.91,9.32c-0.78,5.55-3.81,6.54-8.89,6.46c-4.51-0.07-5.6-1.22-5.17-5.64
			c0.93-9.58,1.56-19.21,1.79-28.84c0.15-6.13,4.41-3.37,7.09-3.81c3.86-0.64,2.73,2.3,2.55,4.22c-0.48,5.23-1.12,10.44-0.97,15.81
			c1.72-5.67,3.56-11.3,5.13-17.01c1.57-5.71,6.07-2.74,9.11-2.86c3.42-0.13,1.38,3,1.3,4.61c-0.26,5.04-0.84,10.05-0.59,15.19
			c1.64-5.52,3.25-11.04,4.94-16.55c0.88-2.85,7.53-5.03,9.75-3.25c1.01,0.81,0.41,1.8,0.15,2.69c-3.15,10.83-6.38,21.63-9.46,32.48
			c-0.62,2.19-1.78,2.94-3.93,2.8c-1.99-0.13-4-0.15-5.98,0c-2.35,0.18-3.25-0.63-3.15-3.08c0.17-4.14,0.05-8.3,0.05-12.45
			C60.77,210.71,60.5,210.68,60.23,210.65z"/>
		<path class="st5" d="M125.98,188.19c4.15-0.84,5.68,0.45,4.25,4.62c-0.64,1.86-0.82,3.9-1.09,5.87c-0.14,1.05-0.76,2.46,0.96,2.84
			c1.67,0.37,1.82-0.9,2.01-2.11c0.42-2.62,1.03-5.22,1.33-7.85c0.29-2.59,1.36-3.57,4.13-3.56c6.35,0.04,6.42-0.12,5.35,6.25
			c-1.6,9.49-3.47,18.94-4.9,28.46c-0.9,6.01-5.3,3.27-8.16,3.37c-4.03,0.14-1.62-3.18-1.57-4.78c0.1-2.78,1-5.54,1.51-8.31
			c0.2-1.11,0.57-2.45-1.22-2.65c-1.37-0.15-1.53,0.89-1.72,1.91c-0.6,3.27-1.62,6.5-1.78,9.79c-0.31,6.39-5.01,4.2-8.05,4.05
			c-4.5-0.22-1.85-3.81-1.58-5.61c1.36-9.19,3.27-18.3,4.68-27.48C120.72,189.26,121.87,187,125.98,188.19z"/>
		<path class="st6" d="M193.36,196.66c-1.43,7.33-2.46,14.76-4.41,21.95c-1.95,7.18-11.36,10.69-17.97,7.3
			c-3.01-1.54-4.4-4.05-4.1-7.34c0.71-7.78,1.85-15.53,4.14-23c2.15-7.03,11.7-10.49,18.11-6.95
			C192.28,190.36,193.42,193.09,193.36,196.66z"/>
		<path class="st5" d="M93.81,207.91c1.5-1.95,10.15-3.3,11.55-1.77c0.8,0.88,0.19,1.88,0.03,2.8c-0.79,4.75-1.71,9.48-2.43,14.24
			c-0.33,2.17-1.22,3.55-3.53,3.03c-3.22-0.72-6.15-0.26-9.39,0.53c-5.39,1.32-9.68-2.65-9.17-8.16c0.72-7.77,1.85-15.52,4.15-23
			c2.3-7.47,13.15-10.86,19.4-6.29c2.67,1.95,4.34,9.54,2.18,11.89c-2.14,2.33-5.36,1.03-8.05,0.93c-2.86-0.1-1.12-2.51-1.28-3.89
			c-0.16-1.35,1.34-3.45-0.62-3.88c-2.19-0.49-2.27,2-2.56,3.48c-0.57,2.93-0.84,5.91-1.23,8.87c-0.23,1.78,0.04,3.53,0.02,4.75
			C92.52,210.47,92.77,209.12,93.81,207.91z"/>
		<path class="st6" d="M163.87,207.12c0,5.32-0.12,10.64,0.04,15.96c0.14,4.89-3.45,2.84-5.62,3.1c-2.2,0.26-4.96,0.77-4.3-3.22
			c0.19-1.13,0.78-2.89-1.22-3.21c-2.01-0.31-2.33,1.31-2.81,2.78c-1.01,3.06-7.3,5.22-10.08,3.57c-1.23-0.73-0.67-1.67-0.39-2.57
			c3.44-11.1,6.93-22.17,10.28-33.3c0.57-1.88,1.64-2.24,3.29-2.17c13.9,0.53,11.6-3.06,11.41,11.57c-0.03,2.49,0,4.99,0,7.48
			C164.26,207.12,164.07,207.12,163.87,207.12z"/>
		<path class="st5" d="M207.29,193.86c-3.23,3.85-2.05,6.59,1.52,8.68c6.31,3.69,7.63,9.07,5.91,15.77
			c-2,7.79-12.91,11.69-19.42,6.85c-2.53-1.88-3.86-7.95-2.01-11c1.88-3.09,5.16-1.32,7.75-1.34c3.02-0.02,1.16,2.33,1.16,3.7
			c0,1.21-0.99,3.05,0.7,3.36c2,0.36,1.95-1.74,2.29-3.15c0.87-3.66-1.48-5.55-4.06-7.22c-3.78-2.44-5.96-5.46-5.42-10.32
			c1.07-9.62,9.53-14.7,18.44-10.83c3.52,1.53,5.43,7.03,3.08,10.2c-2.12,2.86-5.67,1.46-8.3,0.98
			C206.7,199.15,209.23,195.91,207.29,193.86z"/>
		<path class="st7" d="M128.67,34.14c7.98,0,15.96,0.08,23.93-0.04c2.59-0.04,4,0.42,3.9,3.48c-0.19,5.98-0.05,11.97-0.03,17.95
			c0,1.54,0.14,3.13-2.12,3.13c-2.26,0-2.13-1.61-2.12-3.14c0-0.17,0.01-0.33,0-0.5c-0.39-4.06,1.88-9.62-1.08-11.8
			c-2.73-2.01-7.98-0.64-12.12-0.65c-9.81-0.04-19.62,0.11-29.42-0.08c-3.37-0.06-4.88,0.79-4.53,4.41
			c0.29,2.96,0.06,5.98,0.05,8.97c-0.01,1.34,0.1,2.71-1.92,2.77c-1.89,0.06-2.17-1.01-2.17-2.52c0.03-6.48,0.09-12.97-0.01-19.45
			c-0.05-2.96,1.91-2.52,3.7-2.53C112.72,34.14,120.7,34.14,128.67,34.14z"/>
		<path class="st5" d="M194.71,131.68c2.98,0.89,6.61-1.46,8.6,1.4c2.91,4.18,7.02,8.88,7.03,13.37c0,4.48-3.8,9.5-7.1,13.27
			c-2.88,3.29-7.8,0.93-11.8,1.26c-2.01,0.17-4.8,1.19-6.07-0.87c-2.75-4.48-7.36-8.96-7.06-13.85c0.29-4.62,3.97-9.39,7.09-13.36
			C187.58,130.12,191.71,132.64,194.71,131.68z"/>
		<path class="st8" d="M184.88,94.03c3.97-0.73,5.89,0.05,5.81,4.95c-0.08,4.68-2,4.98-5.67,4.88c-3.57-0.1-6.14,0.21-6.11-4.99
			C178.95,93.86,181.06,93.33,184.88,94.03z"/>
		<path class="st9" d="M73.45,94.01c3.7-0.63,5.72-0.1,5.78,4.87c0.06,5.27-2.6,4.7-6.04,4.97c-4.31,0.35-5.57-0.93-5.65-5.41
			C67.44,93.44,70.01,93.62,73.45,94.01z"/>
		<path class="st10" d="M93.81,207.91c-0.07,3.29,2.15,6.46,0.37,9.88c-0.55,1.05-0.78,2.37-2.19,2.25
			c-1.69-0.15-1.41-1.65-1.24-2.72c0.58-3.57,0.69-7.25,2.13-10.65C93.19,207.09,93.5,207.5,93.81,207.91z"/>
		<path class="st11" d="M183.26,193.37c-0.48,9.19-2.33,17.2-4.03,25.22c-0.18,0.86-0.71,1.65-1.7,1.23
			c-0.42-0.18-0.85-1.05-0.78-1.55c1.04-7.85,2.02-15.71,4.36-23.32C181.2,194.61,181.81,194.41,183.26,193.37z"/>
		<path class="st12" d="M155.62,200.36c0.66,4.51,0.1,7.48-0.31,10.46c-0.14,1.05-0.44,1.99-1.78,1.79
			c-2.07-0.3-0.99-1.64-0.73-2.58C153.56,207.26,154.41,204.5,155.62,200.36z"/>
		<path class="st13" d="M201.59,146.64c-0.13,4-3.59,7.28-7.46,7.08c-3.83-0.2-7.23-3.77-7.13-7.48c0.1-3.68,3.76-7.12,7.54-7.08
			C198.43,139.2,201.71,142.68,201.59,146.64z"/>
	</g>
</g>
</svg>
